<?xml version="1.0" standalone="no"?>
<!DOCTYPE svg PUBLIC "-//W3C//DTD SVG 20010904//EN"
 "http://www.w3.org/TR/2001/REC-SVG-20010904/DTD/svg10.dtd">
<svg version="1.0" xmlns="http://www.w3.org/2000/svg"
 width="260.000000pt" height="260.000000pt" viewBox="0 0 260.000000 260.000000"
 preserveAspectRatio="xMidYMid meet">
<metadata>
Created by potrace 1.11, written by Peter Selinger 2001-2013
</metadata>
<g transform="translate(0.000000,260.000000) scale(0.100000,-0.100000)"
fill="#000000" stroke="none">
<path d="M0 1300 l0 -1300 1300 0 1300 0 0 1300 0 1300 -1300 0 -1300 0 0
-1300z m710 1186 c0 -19 6 -25 28 -28 19 -2 28 -9 30 -25 3 -17 -2 -22 -25
-25 -22 -2 -29 -9 -31 -30 -3 -22 -9 -28 -28 -28 -20 0 -24 5 -24 30 0 25 -4
30 -25 30 -20 0 -25 5 -25 25 0 20 5 25 25 25 20 0 25 5 25 25 0 20 5 25 25
25 20 0 25 -5 25 -24z m1560 -1 c0 -20 -5 -25 -25 -25 -20 0 -25 5 -25 25 0
20 5 25 25 25 20 0 25 -5 25 -25z m-1090 -390 c0 -148 -1 -155 -20 -155 -19 0
-20 7 -20 155 0 148 1 155 20 155 19 0 20 -7 20 -155z m160 131 c0 -23 5 -25
64 -31 36 -4 83 -5 105 -3 37 3 41 1 41 -19 0 -17 -6 -23 -21 -23 -12 0 -23
-8 -26 -20 -4 -16 -14 -20 -44 -20 -36 0 -38 1 -42 38 l-4 37 -1 -42 -2 -43
50 0 c49 0 50 -1 50 -30 0 -25 4 -30 25 -30 20 0 25 -5 25 -25 0 -21 5 -25 30
-25 25 0 30 -4 30 -25 0 -23 3 -25 50 -25 43 0 50 3 50 20 0 13 -6 20 -17 19
-11 0 -13 -3 -5 -6 16 -6 15 -23 -2 -23 -14 0 -26 29 -26 68 0 17 -6 22 -25
22 -20 0 -25 5 -25 24 0 19 -6 25 -27 28 -20 2 -29 9 -31 26 -3 21 -1 22 75
22 l78 0 -2 -47 c-1 -27 1 -38 3 -25 4 15 13 22 30 22 20 0 24 -5 24 -31 0
-28 3 -31 25 -27 22 5 25 2 25 -23 0 -24 4 -29 25 -29 20 0 25 -5 25 -25 0
-21 5 -25 29 -25 25 0 30 -4 33 -27 2 -22 8 -28 26 -27 18 0 22 -5 22 -28 0
-23 4 -28 25 -28 23 0 24 -3 27 -77 3 -77 3 -78 31 -81 l27 -3 0 -105 0 -104
25 0 25 0 0 -100 0 -100 -25 0 -25 0 0 -105 0 -105 -30 0 -30 0 0 -60 c0 -52
-2 -60 -19 -60 -15 0 -20 -10 -25 -44 -6 -39 -10 -45 -34 -48 -21 -2 -27 -8
-26 -26 0 -15 -5 -22 -18 -22 -16 0 -18 9 -18 64 0 59 2 65 23 69 12 2 -48 5
-134 6 l-156 1 -7 -40 -6 -40 -74 0 c-68 0 -74 2 -79 22 -4 12 -9 19 -13 16
-7 -8 -34 16 -34 30 0 5 -25 13 -55 17 -50 6 -55 9 -55 31 0 17 -5 24 -20 24
-19 0 -20 7 -20 93 0 135 7 167 36 167 21 0 24 -5 24 -40 l0 -40 70 0 c40 0
70 -4 70 -10 0 -5 12 -10 26 -10 26 0 26 -1 20 -49 -7 -52 2 -68 38 -67 20 1
44 56 25 56 -5 0 -9 27 -9 61 0 33 -4 58 -9 55 -9 -6 -22 53 -14 67 2 4 24 7
49 7 l44 0 0 -55 0 -55 105 0 105 0 0 111 0 111 -50 -4 -50 -3 0 48 0 47 50 0
51 0 -3 108 -3 107 -52 3 -53 3 0 -55 0 -56 -50 0 -50 0 0 -50 0 -50 -47 0
-48 0 3 50 c3 39 1 50 -11 50 -10 0 -13 7 -10 20 5 17 0 20 -26 20 -26 0 -31
4 -31 23 0 17 -9 26 -33 35 -40 15 -107 16 -107 2 0 -5 -4 -10 -10 -10 -5 0
-10 14 -10 30 0 20 -5 30 -15 30 -17 0 -17 -9 -19 308 l-1 212 37 0 c34 0 38
-3 38 -24z m-1192 -318 c-2 -17 -11 -24 -30 -26 -24 -3 -28 0 -28 22 0 22 4
26 31 26 26 0 30 -3 27 -22z m875 -85 c-7 -2 -21 -2 -30 0 -10 3 -4 5 12 5 17
0 24 -2 18 -5z m-557 -128 l-7 -125 31 0 c25 0 30 4 30 25 0 20 5 25 25 25 20
0 25 5 25 26 0 33 33 30 38 -4 3 -19 9 -22 53 -22 46 0 49 1 49 26 0 26 1 27
46 20 26 -3 62 -6 80 -6 27 0 34 -4 34 -20 0 -15 -7 -20 -25 -20 -16 0 -25 -6
-25 -15 0 -12 -13 -15 -55 -15 -52 0 -55 -1 -55 -25 0 -23 -3 -25 -50 -25
l-50 0 0 -50 c0 -47 -2 -50 -25 -50 l-25 0 0 -125 0 -125 25 0 c23 0 25 -4 25
-45 l0 -45 50 0 c46 0 50 -2 50 -24 0 -23 3 -23 107 -29 58 -3 112 -3 120 0 7
3 13 16 13 30 0 21 4 24 23 20 12 -4 41 -9 64 -13 36 -5 42 -10 45 -33 2 -20
9 -27 31 -29 l27 -3 0 79 c0 71 2 80 20 85 20 5 20 0 20 -364 0 -362 0 -369
-20 -369 -15 0 -20 7 -20 25 0 24 -3 25 -57 27 l-58 2 58 3 57 4 0 59 c0 57
-1 60 -25 60 -20 0 -25 5 -25 25 0 24 -2 25 -69 25 -65 0 -70 2 -73 23 -2 16
-9 22 -25 21 -19 0 -23 5 -23 28 0 21 -5 28 -20 28 -13 0 -20 7 -20 19 0 13
-8 21 -22 23 -15 2 -24 11 -26 26 -3 17 -10 22 -32 22 l-29 0 -3 -127 c-2 -82
-7 -128 -14 -130 -7 -2 -14 16 -18 45 -6 45 -9 50 -35 55 -24 5 -28 10 -24 27
4 14 1 20 -12 20 -20 0 -40 20 -40 40 0 8 -11 17 -25 20 -16 4 -26 14 -28 27
-2 14 -12 23 -25 25 -16 2 -23 11 -25 31 -3 23 -8 28 -23 24 -17 -5 -19 1 -19
54 0 59 0 59 -30 59 l-30 0 0 105 0 105 -25 0 c-25 0 -25 2 -25 78 l0 77 47 0
c45 0 48 2 48 25 0 19 -5 25 -22 24 -22 -1 -23 2 -23 102 l0 103 28 3 c27 3
27 3 27 81 0 42 4 77 9 77 5 0 6 -53 2 -125z m354 95 c0 -11 -2 -20 -4 -20 -2
0 -6 9 -9 20 -3 11 -1 20 4 20 5 0 9 -9 9 -20z m-22 -46 c-2 -8 -6 -15 -10
-15 -5 1 -24 1 -43 1 -24 0 -35 5 -35 15 0 11 12 15 46 15 36 0 45 -3 42 -16z
m-98 -44 c0 -17 -7 -20 -40 -20 -33 0 -40 3 -40 20 0 17 7 20 40 20 33 0 40
-3 40 -20z m430 -5 c0 -11 -12 -15 -44 -15 -30 0 -46 5 -50 15 -4 12 4 15 44
15 38 0 50 -4 50 -15z m160 -56 c0 -10 -4 -19 -10 -19 -5 0 -10 12 -10 26 0
14 4 23 10 19 6 -3 10 -15 10 -26z m1230 -104 c0 -20 -5 -25 -25 -25 -20 0
-25 5 -25 25 0 20 5 25 25 25 20 0 25 -5 25 -25z m-1700 -15 c0 -5 -13 -10
-30 -10 -16 0 -30 -4 -30 -10 0 -5 -9 -10 -20 -10 -13 0 -20 7 -20 20 0 17 7
20 50 20 28 0 50 -4 50 -10z m-110 -65 c0 -18 -5 -25 -20 -25 -15 0 -20 7 -20
25 0 18 5 25 20 25 15 0 20 -7 20 -25z m636 -25 c0 -16 -7 -20 -34 -20 -31 0
-34 -2 -30 -25 3 -14 1 -28 -3 -31 -5 -3 -9 18 -9 45 l0 51 38 0 c31 0 38 -4
38 -20z m-686 -114 c0 -108 -1 -114 -19 -109 -18 4 -20 16 -23 110 -2 58 -1
107 1 109 2 2 13 4 23 4 16 0 18 -10 18 -114z m153 77 c-7 -2 -21 -2 -30 0
-10 3 -4 5 12 5 17 0 24 -2 18 -5z m-63 -78 c0 -51 -3 -65 -15 -65 -12 0 -15
14 -15 65 0 51 3 65 15 65 12 0 15 -14 15 -65z m570 10 c0 -14 -4 -25 -10 -25
-11 0 -14 33 -3 43 11 11 13 8 13 -18z m-500 -5 c0 -11 -4 -20 -10 -20 -5 0
-10 9 -10 20 0 11 5 20 10 20 6 0 10 -9 10 -20z m-2 -92 c-2 -15 -11 -24 -25
-26 -19 -3 -23 1 -23 22 0 21 5 26 26 26 21 0 25 -4 22 -22z m-108 -50 c0 -11
-7 -18 -20 -18 -13 0 -20 7 -20 18 0 11 7 18 20 18 13 0 20 -7 20 -18z m280
-3 c0 -8 -9 -15 -20 -15 -11 0 -20 7 -20 15 0 8 9 15 20 15 11 0 20 -7 20 -15z
m-50 -50 c0 -19 -8 -20 -110 -23 l-110 -4 0 26 0 26 110 -2 c102 -3 110 -4
110 -23z m780 -230 c0 -11 -12 -15 -45 -15 -33 0 -45 4 -45 15 0 11 12 15 45
15 33 0 45 -4 45 -15z m-400 -95 l0 -70 100 0 100 0 0 -50 c0 -43 3 -52 23
-60 21 -8 21 -9 -5 -9 -24 -1 -28 -5 -28 -31 0 -26 4 -30 26 -30 21 0 25 -4
22 -22 -3 -22 -7 -23 -113 -23 l-110 0 -3 -27 c-3 -23 -8 -28 -31 -28 l-28 0
-6 113 c-4 61 -7 156 -7 210 l0 97 30 0 30 0 0 -70z m510 -50 c0 -5 -11 -10
-25 -10 -14 0 -25 5 -25 10 0 6 11 10 25 10 14 0 25 -4 25 -10z m-1203 -22
c-3 -8 -6 -5 -6 6 -1 11 2 17 5 13 3 -3 4 -12 1 -19z m1130 -104 c-3 -3 -12
-4 -19 -1 -8 3 -5 6 6 6 11 1 17 -2 13 -5z m-877 -39 c0 -12 -13 -15 -58 -15
-46 0 -59 3 -59 15 0 12 13 15 59 15 45 0 58 -3 58 -15z m813 -22 c-13 -2 -35
-2 -50 0 -16 2 -5 4 22 4 28 0 40 -2 28 -4z m-713 -38 c0 -21 -5 -25 -30 -25
-25 0 -30 4 -30 25 0 21 5 25 30 25 25 0 30 -4 30 -25z m47 3 c-3 -8 -6 -5 -6
6 -1 11 2 17 5 13 3 -3 4 -12 1 -19z m-689 -110 c3 -24 0 -28 -22 -28 -22 0
-26 4 -26 31 0 26 3 30 23 27 16 -2 23 -11 25 -30z m1812 -88 c0 -25 4 -30 25
-30 20 0 25 -5 25 -25 0 -20 -5 -25 -25 -25 -20 0 -25 -5 -25 -25 0 -20 -5
-25 -25 -25 -20 0 -25 5 -25 25 0 21 -5 25 -30 25 -25 0 -30 4 -30 24 0 19 6
25 28 28 21 2 28 9 30 31 3 21 9 27 28 27 20 0 24 -5 24 -30z m110 -165 c0
-20 -5 -25 -25 -25 -20 0 -25 5 -25 25 0 20 5 25 25 25 20 0 25 -5 25 -25z"/>
<path d="M1283 2145 c0 -27 2 -38 4 -22 2 15 2 37 0 50 -2 12 -4 0 -4 -28z"/>
<path d="M1313 2083 c9 -2 23 -2 30 0 6 3 -1 5 -18 5 -16 0 -22 -2 -12 -5z"/>
<path d="M1442 2015 c0 -16 2 -22 5 -12 2 9 2 23 0 30 -3 6 -5 -1 -5 -18z"/>
<path d="M1293 1973 c9 -2 25 -2 35 0 9 3 1 5 -18 5 -19 0 -27 -2 -17 -5z"/>
<path d="M1411 1963 c-1 -21 3 -23 47 -21 l47 1 -42 4 c-29 3 -43 9 -46 21 -3
12 -5 11 -6 -5z"/>
<path d="M1313 1943 c9 -2 23 -2 30 0 6 3 -1 5 -18 5 -16 0 -22 -2 -12 -5z"/>
<path d="M1282 1910 c0 -14 2 -19 5 -12 2 6 2 18 0 25 -3 6 -5 1 -5 -13z"/>
<path d="M1412 1833 c-2 -50 -1 -53 23 -53 22 0 25 -4 25 -34 0 -29 3 -33 19
-29 15 4 20 -1 23 -24 3 -27 5 -28 58 -28 l55 0 3 70 c1 39 -1 88 -7 110 -7
33 -9 35 -10 13 -1 -28 -1 -28 -76 -28 -68 0 -75 -2 -75 -20 0 -11 -7 -20 -14
-20 -11 0 -16 14 -19 48 l-3 47 -2 -52z"/>
<path d="M1282 1800 c0 -14 2 -19 5 -12 2 6 2 18 0 25 -3 6 -5 1 -5 -13z"/>
<path d="M1313 1763 c9 -2 23 -2 30 0 6 3 -1 5 -18 5 -16 0 -22 -2 -12 -5z"/>
<path d="M1738 1763 c6 -2 18 -2 25 0 6 3 1 5 -13 5 -14 0 -19 -2 -12 -5z"/>
<path d="M1350 1716 c0 -2 11 -6 25 -8 14 -3 25 -1 25 3 0 5 -11 9 -25 9 -14
0 -25 -2 -25 -4z"/>
<path d="M1601 1634 c0 -11 3 -14 6 -6 3 7 2 16 -1 19 -3 4 -6 -2 -5 -13z"/>
<path d="M1628 1603 c6 -2 18 -2 25 0 6 3 1 5 -13 5 -14 0 -19 -2 -12 -5z"/>
<path d="M1602 1540 c0 -14 2 -19 5 -12 2 6 2 18 0 25 -3 6 -5 1 -5 -13z"/>
<path d="M1551 1224 c0 -11 3 -14 6 -6 3 7 2 16 -1 19 -3 4 -6 -2 -5 -13z"/>
<path d="M1313 1143 c9 -2 23 -2 30 0 6 3 -1 5 -18 5 -16 0 -22 -2 -12 -5z"/>
<path d="M1468 1073 c7 -3 16 -2 19 1 4 3 -2 6 -13 5 -11 0 -14 -3 -6 -6z"/>
<path d="M1602 1060 c0 -14 2 -19 5 -12 2 6 2 18 0 25 -3 6 -5 1 -5 -13z"/>
<path d="M1712 1010 c0 -19 2 -27 5 -17 2 9 2 25 0 35 -3 9 -5 1 -5 -18z"/>
<path d="M1392 1000 c0 -14 2 -19 5 -12 2 6 2 18 0 25 -3 6 -5 1 -5 -13z"/>
<path d="M1890 1000 c0 -11 4 -20 9 -20 5 0 7 9 4 20 -3 11 -7 20 -9 20 -2 0
-4 -9 -4 -20z"/>
<path d="M1551 994 c0 -11 3 -14 6 -6 3 7 2 16 -1 19 -3 4 -6 -2 -5 -13z"/>
<path d="M1426 913 c5 -5 12 -12 16 -18 4 -6 8 -2 8 8 0 9 -7 17 -17 17 -9 0
-12 -3 -7 -7z"/>
<path d="M778 1623 c6 -2 18 -2 25 0 6 3 1 5 -13 5 -14 0 -19 -2 -12 -5z"/>
<path d="M500 1005 c0 -20 5 -25 25 -25 20 0 25 -5 25 -25 0 -14 5 -26 10 -26
40 -5 45 -3 45 21 0 20 -6 26 -27 28 -22 3 -28 9 -28 28 0 19 -5 24 -25 24
-20 0 -25 -5 -25 -25z"/>
<path d="M940 990 c0 -18 -7 -20 -70 -20 l-70 0 0 -30 c0 -26 4 -30 26 -30 20
0 25 -4 22 -22 -2 -17 3 -24 20 -26 16 -3 22 -10 22 -28 0 -19 5 -24 25 -24
18 0 25 -5 25 -20 0 -17 7 -20 45 -20 41 0 45 -2 45 -25 0 -24 3 -25 55 -25
l55 0 0 145 0 145 -100 0 c-93 0 -100 -1 -100 -20z"/>
<path d="M610 895 c0 -20 5 -25 25 -25 20 0 25 5 25 25 0 20 -5 25 -25 25 -20
0 -25 -5 -25 -25z"/>
</g>
</svg>
